<svg width="64" height="64" viewBox="0 0 64 64" fill="none" xmlns="http://www.w3.org/2000/svg">
<path d="M32 64C49.6731 64 64 49.6731 64 32C64 14.3269 49.6731 0 32 0C14.3269 0 0 14.3269 0 32C0 49.6731 14.3269 64 32 64Z" fill="#FF4C4C"/>
<path d="M63.0825 39.635C59.6587 53.625 47.0412 64 32 64C30.4911 64.0004 28.9841 63.8951 27.49 63.685L14.07 50.265L13.5325 49.0613L13.875 47.5213L14.3325 45.7713L15.39 43.8413L17.3837 41.9038L19.74 40.77L21.785 40.4238L25.1975 40.415L25.7425 40.165L26.045 39.7L26.5812 38.8963V38.125L22.525 34.0663L21.55 32.735L18.4475 29.6325L17.81 28.2125L17.9675 27.0025L18.7175 25.9625L18.1625 25.0125L16.985 20.795L17.7962 16.0863L21.0675 12.25L25.98 10.7675L32 11.415L37.065 13.6175L63.0825 39.635Z" fill="url(#paint0_linear_2018_458)"/>
<path d="M19.795 45.9837C19.5204 45.984 19.2571 46.0934 19.0631 46.2877C18.869 46.482 18.76 46.7453 18.76 47.02V50.75H20.8313V47.02C20.8309 46.7452 20.7216 46.4818 20.5274 46.2876C20.3331 46.0933 20.0697 45.984 19.795 45.9837Z" fill="white"/>
<path d="M37.875 50.75H39.9463V50.225C39.1985 49.8513 38.5023 49.3824 37.875 48.83V50.75Z" fill="white"/>
<path d="M34.625 40.4138H34.25L33.85 40.7813C32.3362 42.1688 30.8087 42.875 29.3012 42.875C27.7937 42.875 26.2912 42.1688 24.85 40.7775L24.475 40.4175H22.1537C20.2997 40.4177 18.4979 41.0319 17.0298 42.1642C15.5617 43.2965 14.5099 44.8831 14.0387 46.6763L13.56 48.5C13.4906 48.7655 13.4831 49.0434 13.5378 49.3122C13.5926 49.5811 13.7082 49.8339 13.8759 50.0511C14.0435 50.2684 14.2587 50.4443 14.5049 50.5655C14.7511 50.6866 15.0218 50.7497 15.2962 50.75H18.26V47.02C18.2541 46.8147 18.2895 46.6102 18.364 46.4188C18.4386 46.2274 18.5507 46.0528 18.6939 45.9055C18.8371 45.7582 19.0084 45.6411 19.1976 45.5611C19.3868 45.4811 19.5902 45.4399 19.7956 45.4399C20.001 45.4399 20.2044 45.4811 20.3936 45.5611C20.5828 45.6411 20.7541 45.7582 20.8973 45.9055C21.0404 46.0528 21.1526 46.2274 21.2272 46.4188C21.3017 46.6102 21.3371 46.8147 21.3312 47.02V50.75H37.375V48.3575C35.5742 46.5422 34.5645 44.0883 34.5662 41.5313C34.5637 41.1579 34.5833 40.7848 34.625 40.4138Z" fill="white"/>
<path d="M40.4425 50.4587V50.75H41.2025C40.9442 50.6667 40.6908 50.5696 40.4425 50.4587Z" fill="white"/>
<path d="M29.075 37.5C28.2125 37.5009 27.3542 37.381 26.525 37.1437V38.4062C26.525 39.7275 25.1975 40.4175 25.1975 40.4175C27.9325 43.0587 30.6975 42.9962 33.505 40.4175C33.505 40.4175 32.1775 39.7275 32.1775 38.4062V36.9637C31.1816 37.3185 30.1322 37.4999 29.075 37.5Z" fill="white"/>
<path d="M18.4487 25.5337C18.8382 25.2237 19.298 25.0142 19.7875 24.9237V23.1637C19.7857 22.6493 19.9875 22.155 20.3487 21.7887C20.8787 21.2462 21.6062 20.8425 22.5087 20.59C22.6175 20.55 23.7487 20.09 24.5087 18.2887C24.5554 18.1783 24.6269 18.0801 24.7177 18.0018C24.8084 17.9235 24.916 17.8671 25.0321 17.8372C25.1482 17.8072 25.2696 17.8043 25.387 17.8289C25.5043 17.8534 25.6144 17.9047 25.7087 17.9787C26.7662 18.8087 30.6512 21.5275 36.2437 21.6862C36.8095 21.6984 37.3479 21.9322 37.743 22.3373C38.1381 22.7425 38.3583 23.2866 38.3562 23.8525V24.9237C38.7678 25.0003 39.159 25.1617 39.505 25.3975C40.4008 24.03 40.8814 22.4323 40.8887 20.7975C40.8887 15.2525 36.0525 11.0787 26.98 10.7575C20.09 10.5075 16.395 15.8 17.0237 21.3087C17.1968 22.8015 17.6824 24.2411 18.4487 25.5337Z" fill="white"/>
<path d="M18.5412 26.125C18.2011 26.4652 17.964 26.8944 17.8571 27.3634C17.7503 27.8324 17.7781 28.3221 17.9373 28.776C18.0965 29.2299 18.3807 29.6296 18.7571 29.929C19.1335 30.2285 19.5869 30.4156 20.0649 30.4687C19.8805 29.733 19.7873 28.9773 19.7874 28.2187V25.435C19.3149 25.5419 18.8826 25.7813 18.5412 26.125Z" fill="white"/>
<path d="M38.3612 25.435V28.2087C38.3613 28.9673 38.2681 29.723 38.0837 30.4587C38.6836 30.3913 39.2403 30.1136 39.6548 29.6747C40.0694 29.2359 40.3151 28.6644 40.3484 28.0617C40.3816 27.4589 40.2003 26.8639 39.8365 26.3821C39.4728 25.9003 38.9501 25.563 38.3612 25.43V25.435Z" fill="white"/>
<path d="M36.2337 22.1862C30.4837 22.0237 26.4837 19.22 25.405 18.3737C25.371 18.3473 25.3315 18.329 25.2893 18.3203C25.2472 18.3116 25.2037 18.3126 25.162 18.3234C25.1204 18.3341 25.0817 18.3543 25.0491 18.3823C25.0164 18.4103 24.9907 18.4454 24.9737 18.485C24.0737 20.5987 22.66 21.0687 22.66 21.0687C21.7175 21.33 21.1037 21.7312 20.7062 22.1387C20.438 22.4125 20.2877 22.7805 20.2875 23.1637V28.2087C20.287 29.363 20.5139 30.5061 20.9553 31.5727C21.3967 32.6393 22.0439 33.6085 22.8599 34.4249C23.676 35.2412 24.6449 35.8889 25.7113 36.3307C26.7777 36.7726 27.9207 37 29.075 37C31.4053 36.9996 33.6402 36.0737 35.2879 34.4257C36.9356 32.7778 37.8612 30.5429 37.8612 28.2125V23.8537C37.8604 23.4186 37.6899 23.001 37.386 22.6896C37.0821 22.3782 36.6687 22.1976 36.2337 22.1862Z" fill="white"/>
<path d="M44.2813 32.3125C42.458 32.3125 40.6756 32.8532 39.1596 33.8661C37.6436 34.8791 36.462 36.3189 35.7642 38.0034C35.0665 39.6879 34.8839 41.5415 35.2396 43.3297C35.5953 45.118 36.4733 46.7606 37.7626 48.0499C39.0519 49.3392 40.6945 50.2172 42.4828 50.5729C44.271 50.9286 46.1246 50.746 47.8091 50.0483C49.4936 49.3505 50.9334 48.1689 51.9464 46.6529C52.9593 45.1369 53.5 43.3545 53.5 41.5312C53.5 39.0863 52.5287 36.7415 50.7999 35.0126C49.071 33.2838 46.7262 32.3125 44.2813 32.3125ZM48.3438 42.9375H45.6875V45.5938C45.6875 45.9667 45.5393 46.3244 45.2756 46.5881C45.0119 46.8518 44.6542 47 44.2813 47C43.9083 47 43.5506 46.8518 43.2869 46.5881C43.0232 46.3244 42.875 45.9667 42.875 45.5938V42.9375H40.2188C39.8458 42.9375 39.4881 42.7893 39.2244 42.5256C38.9607 42.2619 38.8125 41.9042 38.8125 41.5312C38.8125 41.1583 38.9607 40.8006 39.2244 40.5369C39.4881 40.2732 39.8458 40.125 40.2188 40.125H42.875V37.4688C42.875 37.0958 43.0232 36.7381 43.2869 36.4744C43.5506 36.2107 43.9083 36.0625 44.2813 36.0625C44.6542 36.0625 45.0119 36.2107 45.2756 36.4744C45.5393 36.7381 45.6875 37.0958 45.6875 37.4688V40.125H48.3438C48.7167 40.125 49.0744 40.2732 49.3381 40.5369C49.6018 40.8006 49.75 41.1583 49.75 41.5312C49.75 41.9042 49.6018 42.2619 49.3381 42.5256C49.0744 42.7893 48.7167 42.9375 48.3438 42.9375Z" fill="white"/>
<defs>
<linearGradient id="paint0_linear_2018_458" x1="13.4687" y1="19.8425" x2="51.44" y2="57.8138" gradientUnits="userSpaceOnUse">
<stop stop-color="#CC0E0E"/>
<stop offset="1" stop-color="#CC0E0E" stop-opacity="0"/>
</linearGradient>
</defs>
</svg>
