<svg width="64" height="64" viewBox="0 0 64 64" fill="none" xmlns="http://www.w3.org/2000/svg">
<g clip-path="url(#clip0_2018_2274)">
<path d="M32 64C49.6731 64 64 49.6731 64 32C64 14.3269 49.6731 0 32 0C14.3269 0 0 14.3269 0 32C0 49.6731 14.3269 64 32 64Z" fill="#FF7D81"/>
<path d="M63.9999 32C63.9999 30.4286 63.8866 28.8837 63.6678 27.3731L48.4011 12.1063L45.5146 15.8816L40.0279 10.3948L38.4743 13.2321L34.7461 9.50385L15.5986 55.0073L23.4311 62.8398C26.1584 63.596 29.032 64 31.9999 64C49.673 64 63.9999 49.6731 63.9999 32Z" fill="#FF475A"/>
<path d="M15.5986 12.1064V55.0074H32.2154L33.4654 32.3785L32.2154 12.1064H15.5986Z" fill="#FFCE00"/>
<path d="M32 12.1064H48.4012V55.0073H32V12.1064Z" fill="#FDBA12"/>
<path d="M18.77 14.5469V51.6678H32.2154L33.4654 32.75L32.2154 14.5469H18.77Z" fill="white"/>
<path d="M32 14.5469H45.2299V51.6678H32V14.5469Z" fill="#E9EDF5"/>
<path d="M32 8.12549C30.514 8.12549 29.249 9.07186 28.7749 10.3947H23.9722V16.4224H32.2155L33.4655 12.1064L32.2155 8.13411C32.1442 8.12961 32.0725 8.12549 32 8.12549Z" fill="#636978"/>
<path d="M40.0279 10.3947H35.2251C34.751 9.07199 33.486 8.12549 32 8.12549V16.4224H40.0279V10.3947Z" fill="#414952"/>
<path d="M22.8466 33.2655L20.2151 30.6338L21.8945 28.9546L22.8466 29.9067L25.5906 27.1627L27.27 28.842L22.8466 33.2655Z" fill="#00C8C8"/>
<path d="M22.8466 40.8117L20.2151 38.1801L21.8945 36.5009L22.8466 37.453L25.5906 34.709L27.27 36.3882L22.8466 40.8117Z" fill="#00C8C8"/>
<path d="M22.8466 48.358L20.2151 45.7264L21.8945 44.0471L22.8466 44.9992L25.5906 42.2552L27.27 43.9347L22.8466 48.358Z" fill="#00C8C8"/>
<path d="M28.0449 29.1987V31.3237H32.2154L32.8538 30.2141L32.2154 29.1987H28.0449Z" fill="#7E8596"/>
<path d="M32 29.1987H39.6106V31.3237H32V29.1987Z" fill="#636978"/>
<path d="M28.0449 44.2914V46.4164H32.2154L32.6358 45.3066L32.2154 44.2914H28.0449Z" fill="#7E8596"/>
<path d="M32 44.2914H39.6106V46.4164H32V44.2914Z" fill="#636978"/>
<path d="M28.0449 36.745V38.87H32.2154L32.8538 37.7604L32.2154 36.745H28.0449Z" fill="#7E8596"/>
<path d="M32 36.745H39.6106V38.87H32V36.745Z" fill="#636978"/>
<path d="M30.4288 18.3828V20.985L27.8264 20.9849V23.9326L30.4288 23.9328V26.535H32.2154L32.8538 22.4589L32.2154 18.3828H30.4288Z" fill="#FF7D81"/>
<path d="M33.3766 20.985V18.3828H32V26.535L33.3766 26.5351V23.9328L35.979 23.9329V20.9851L33.3766 20.985Z" fill="#FF475A"/>
</g>
<defs>
<clipPath id="clip0_2018_2274">
<rect width="64" height="64" fill="white"/>
</clipPath>
</defs>
</svg>
