<svg width="64" height="64" viewBox="0 0 64 64" fill="none" xmlns="http://www.w3.org/2000/svg">
<path fill-rule="evenodd" clip-rule="evenodd" d="M58.6476 40.7585C57.041 39.1518 54.927 38.1519 52.6658 37.9291C50.4046 37.7064 48.1362 38.2745 46.2469 39.5368C44.3577 40.7991 42.9646 42.6774 42.305 44.8517C41.6454 47.026 41.7601 49.3617 42.6296 51.4609C43.4991 53.56 45.0695 55.2928 47.0734 56.3639C49.0772 57.435 51.3904 57.7781 53.6189 57.3349C55.8474 56.8916 57.8532 55.6894 59.2946 53.933C60.736 52.1766 61.5238 49.9748 61.5238 47.7026C61.5255 46.4127 61.2723 45.1352 60.7787 43.9435C60.285 42.7518 59.5608 41.6694 58.6476 40.7585ZM46.9237 48.1221C46.787 47.9916 46.7072 47.8125 46.7016 47.6237C46.696 47.4348 46.7651 47.2513 46.8938 47.1129C47.0226 46.9746 47.2006 46.8925 47.3894 46.8845C47.5783 46.8765 47.7626 46.9433 47.9026 47.0703L50.5108 49.5008L55.4788 44.3995C55.5446 44.3319 55.623 44.2779 55.7096 44.2406C55.7962 44.2034 55.8893 44.1835 55.9836 44.1822C56.0779 44.1809 56.1715 44.1982 56.2591 44.233C56.3467 44.2679 56.4265 44.3197 56.4941 44.3854C56.5617 44.4512 56.6157 44.5296 56.653 44.6162C56.6903 44.7028 56.7101 44.7959 56.7114 44.8902C56.7128 44.9845 56.6955 45.0781 56.6606 45.1657C56.6257 45.2533 56.5739 45.3332 56.5082 45.4007L51.0608 50.9946C50.931 51.1341 50.7511 51.2162 50.5607 51.2231C50.3703 51.2299 50.185 51.1609 50.0455 51.0311L46.9237 48.1221ZM7.67257 25.7444V26.9611C7.67021 27.256 7.78072 27.5406 7.98145 27.7566C8.06971 27.8526 8.17674 27.9295 8.29589 27.9824C8.41505 28.0354 8.54381 28.0633 8.6742 28.0645H16.8656C16.996 28.0633 17.1247 28.0354 17.2439 27.9824C17.363 27.9295 17.4701 27.8526 17.5583 27.7566C17.7591 27.5406 17.8696 27.256 17.8672 26.9611V25.7444H7.67257ZM23.0637 57.4H2.47607V60.966C2.47739 61.2398 2.58677 61.5021 2.78042 61.6957C2.97408 61.8894 3.23635 61.9987 3.5102 62H22.0296C22.3034 61.9987 22.5657 61.8894 22.7594 61.6957C22.9531 61.502 23.0624 61.2397 23.0637 60.9659V57.4ZM2.4762 55.96V26.7785C2.47755 26.5046 2.58693 26.2424 2.78058 26.0488C2.97422 25.8551 3.23647 25.7457 3.51032 25.7444H6.23257V26.9611C6.23106 27.6223 6.48243 28.2591 6.9352 28.741C7.15737 28.9805 7.42635 29.1719 7.72548 29.3032C8.02461 29.4345 8.34751 29.503 8.6742 29.5045H16.8656C17.1923 29.503 17.5152 29.4345 17.8143 29.3032C18.1134 29.1719 18.3824 28.9805 18.6046 28.741C19.0574 28.2591 19.3088 27.6224 19.3072 26.9611V25.7444H22.0296C22.3034 25.7457 22.5657 25.8551 22.7593 26.0488C22.953 26.2424 23.0624 26.5046 23.0637 26.7785V55.9599L2.4762 55.96ZM11.6664 60.445C11.4755 60.445 11.2924 60.3691 11.1573 60.2341C11.0223 60.0991 10.9464 59.916 10.9464 59.725C10.9464 59.534 11.0223 59.3509 11.1573 59.2159C11.2924 59.0809 11.4755 59.005 11.6664 59.005H13.8732C14.0642 59.005 14.2473 59.0809 14.3823 59.2159C14.5173 59.3509 14.5932 59.534 14.5932 59.725C14.5932 59.916 14.5173 60.0991 14.3823 60.2341C14.2473 60.3691 14.0642 60.445 13.8732 60.445H11.6664ZM17.2652 2H15.5749C15.3349 2.00125 15.1051 2.09715 14.9353 2.26689C14.7656 2.43662 14.6697 2.66647 14.6684 2.9065V7.1175C14.6697 7.35753 14.7656 7.58739 14.9353 7.7571C15.1051 7.92682 15.3349 8.02269 15.5749 8.02388H17.2649C17.505 8.02269 17.7348 7.92682 17.9046 7.7571C18.0743 7.58739 18.1702 7.35753 18.1714 7.1175V2.9065C18.1702 2.66651 18.0743 2.4367 17.9047 2.26697C17.735 2.09725 17.5052 2.00131 17.2652 2ZM33.9421 2H32.2522C32.0122 2.00125 31.7823 2.09715 31.6126 2.26689C31.4429 2.43662 31.3469 2.66647 31.3457 2.9065V7.1175C31.3469 7.35753 31.4428 7.58739 31.6126 7.7571C31.7823 7.92682 32.0122 8.02269 32.2522 8.02388H33.9421C34.1821 8.02276 34.412 7.92691 34.5818 7.75718C34.7515 7.58744 34.8474 7.35755 34.8486 7.1175V2.9065C34.8474 2.66645 34.7515 2.43656 34.5818 2.26681C34.412 2.09707 34.1821 2.00118 33.9421 2ZM50.6191 2H48.9292C48.6891 2.00118 48.4593 2.09707 48.2895 2.26681C48.1198 2.43656 48.0239 2.66645 48.0227 2.9065V7.1175C48.0239 7.35755 48.1197 7.58744 48.2895 7.75718C48.4592 7.92691 48.6891 8.02276 48.9292 8.02388H50.6191C50.8591 8.02269 51.089 7.92682 51.2587 7.7571C51.4285 7.58739 51.5244 7.35753 51.5256 7.1175V2.9065C51.5243 2.66647 51.4284 2.43662 51.2587 2.26689C51.089 2.09715 50.8591 2.00125 50.6191 2ZM36.1267 40.4969H29.7777V46.8457H36.1267V40.4969ZM29.0577 39.0568H36.8467C37.0377 39.0568 37.2208 39.1326 37.3558 39.2676C37.4908 39.4027 37.5667 39.5858 37.5667 39.7767V47.5658C37.5667 47.7567 37.4908 47.9398 37.3558 48.0749C37.2208 48.2099 37.0377 48.2858 36.8467 48.2858H29.0577C28.8667 48.2858 28.6836 48.2099 28.5486 48.0749C28.4136 47.9398 28.3377 47.7567 28.3377 47.5658V39.7767C28.3377 39.5858 28.4136 39.4027 28.5486 39.2676C28.6836 39.1326 28.8667 39.0568 29.0577 39.0568ZM36.1267 27.1908H29.7777V33.5396H36.1267V27.1908ZM29.0577 25.7507H36.8467C37.0377 25.7507 37.2208 25.8266 37.3558 25.9616C37.4908 26.0967 37.5667 26.2798 37.5667 26.4708V34.2596C37.5667 34.4506 37.4908 34.6337 37.3558 34.7687C37.2208 34.9038 37.0377 34.9796 36.8467 34.9796H29.0577C28.8667 34.9796 28.6836 34.9038 28.5486 34.7687C28.4136 34.6337 28.3377 34.4506 28.3377 34.2596V26.4708C28.3377 26.2798 28.4136 26.0967 28.5486 25.9616C28.6836 25.8266 28.8667 25.7507 29.0577 25.7507ZM52.1913 27.1908H45.8424V33.5396H52.1913V27.1908ZM45.1225 25.7507H52.9113C53.1023 25.7507 53.2854 25.8266 53.4204 25.9616C53.5555 26.0967 53.6313 26.2798 53.6313 26.4708V34.2596C53.6313 34.4506 53.5555 34.6337 53.4204 34.7687C53.2854 34.9038 53.1023 34.9796 52.9113 34.9796H45.1225C44.9315 34.9796 44.7484 34.9038 44.6133 34.7687C44.4783 34.6337 44.4025 34.4506 44.4025 34.2596V26.4708C44.4025 26.2798 44.4783 26.0967 44.6133 25.9616C44.7484 25.8266 44.9315 25.7507 45.1225 25.7507ZM59.785 18.0583V39.8611C59.7455 39.8206 59.7059 39.7804 59.6661 39.7404C57.7584 37.8346 55.2303 36.6766 52.5413 36.4767C49.8522 36.2768 47.1807 37.0483 45.0122 38.651C42.8437 40.2538 41.3222 42.5813 40.7243 45.2106C40.1263 47.84 40.4915 50.5966 41.7536 52.9795H24.5036V26.7785C24.5021 26.1228 24.241 25.4943 23.7773 25.0306C23.3136 24.567 22.6852 24.3058 22.0294 24.3044H6.40982V18.0583H59.785ZM6.40995 16.6181V7.7125C6.41206 7.1418 6.63967 6.59508 7.04318 6.1915C7.44669 5.78792 7.99338 5.56021 8.56407 5.558H13.2287V7.1175C13.23 7.73938 13.4776 8.33542 13.9173 8.77518C14.3571 9.21494 14.9531 9.46261 15.5749 9.464H17.2649C17.8869 9.46274 18.4831 9.21513 18.9229 8.77536C19.3627 8.33558 19.6104 7.73947 19.6117 7.1175V5.558H29.9057V7.1175C29.907 7.73942 30.1547 8.3355 30.5944 8.77527C31.0342 9.21503 31.6303 9.46268 32.2522 9.464H33.9421C34.564 9.46268 35.1601 9.21503 35.5998 8.77527C36.0396 8.3355 36.2873 7.73942 36.2886 7.1175V5.558H46.5827V7.1175C46.584 7.73942 46.8317 8.3355 47.2714 8.77527C47.7112 9.21503 48.3073 9.46268 48.9292 9.464H50.6191C51.241 9.46268 51.8371 9.21503 52.2768 8.77527C52.7166 8.3355 52.9643 7.73942 52.9656 7.1175V5.558H57.6301C58.2008 5.56014 58.7476 5.78782 59.1511 6.19141C59.5547 6.595 59.7823 7.14176 59.7845 7.7125V16.6182L6.40995 16.6181Z" fill="#EF4343"/>
</svg>
