<svg width="64" height="64" viewBox="0 0 64 64" fill="none" xmlns="http://www.w3.org/2000/svg">
<g clip-path="url(#clip0_2018_2322)">
<path d="M45.7254 35.1692L33.2025 38.4254C32.4287 38.6267 31.6165 38.6307 30.8407 38.4373L17.6299 35.1431C15.5349 34.6207 14.0647 32.7388 14.0647 30.5796V16.1465C14.0646 7.22899 21.2937 0 30.2112 0H33.0985C42.016 0 49.245 7.22899 49.245 16.1465V30.6174C49.245 32.7591 47.7981 34.6302 45.7254 35.1692Z" fill="#FD9727"/>
<path d="M33.0985 0H30.2111C29.4859 0 28.772 0.0486249 28.072 0.14125C35.9783 1.18787 42.0795 7.95423 42.0795 16.1465V30.6174C42.0795 32.7591 40.6326 34.6303 38.5599 35.1693L28.3654 37.8201L30.8408 38.4373C31.6166 38.6308 32.4286 38.6267 33.2026 38.4254L45.7255 35.1692C47.7982 34.6302 49.2451 32.7591 49.2451 30.6173V16.1465C49.245 7.22899 42.016 0 33.0985 0Z" fill="#FF6D3A"/>
<path d="M14.8119 26.2266H18.2381V17.8615H14.8119C13.8053 17.8615 12.9893 18.6774 12.9893 19.6841V24.4038C12.9893 25.4106 13.8053 26.2266 14.8119 26.2266Z" fill="#3D6687"/>
<path d="M49.1877 26.2266H45.7615V17.8615H49.1877C50.1943 17.8615 51.0103 18.6774 51.0103 19.6841V24.4038C51.0103 25.4106 50.1943 26.2266 49.1877 26.2266Z" fill="#3D6687"/>
<path d="M39.7365 40.8223C38.5382 40.5814 37.6761 39.5288 37.6761 38.3066V32.5225H32H26.324V38.3066C26.324 39.5288 25.4619 40.5814 24.2636 40.8223L22.8806 41.1003V50.3889H32H41.1195V41.1003L39.7365 40.8223Z" fill="#FED9A8"/>
<path d="M51.5542 43.941L40.1694 40.3913C39.8161 40.2811 39.4307 40.3706 39.1619 40.6252L31.9998 47.4125L24.8377 40.6253C24.569 40.3707 24.1836 40.2812 23.8302 40.3914L12.4455 43.9412C7.39799 45.4273 3.93237 50.0605 3.93237 55.3223V62.9068C3.93237 63.5105 4.42187 64 5.02562 64H58.9741C59.5779 64 60.0674 63.5105 60.0674 62.9068V55.3223C60.0673 50.0604 56.6017 45.4272 51.5542 43.941Z" fill="#FF4C4C"/>
<path d="M51.5542 43.941L40.1695 40.3913C39.8161 40.2811 39.4307 40.3706 39.162 40.6252L37.8232 41.8939L44.3887 43.941C49.4362 45.4272 52.9018 50.0604 52.9018 55.3221V63.9999H58.9742C59.578 63.9999 60.0674 63.5104 60.0674 62.9066V55.3221C60.0673 50.0604 56.6017 45.4272 51.5542 43.941Z" fill="#EF2929"/>
<path d="M31.9999 37.3316C24.1859 37.3316 17.8516 30.9972 17.8516 23.1833V19.2072C17.8516 11.3933 24.186 5.05884 31.9999 5.05884C39.8138 5.05884 46.1483 11.3933 46.1483 19.2072V23.1833C46.1483 30.9973 39.8139 37.3316 31.9999 37.3316Z" fill="#FED9A8"/>
<path d="M38.9826 6.89996V23.1833C38.9826 29.7593 34.496 35.287 28.417 36.8735C29.5614 37.1722 30.7619 37.3317 31.9997 37.3317C39.8137 37.3317 46.1481 30.9972 46.1481 23.1833V19.2072C46.1482 13.9328 43.2617 9.33308 38.9826 6.89996Z" fill="#F4C892"/>
<path d="M24.8378 40.6253L31.9999 47.4125L27.5829 48.9173C26.5007 49.2859 25.3029 48.9654 24.5494 48.1055L19.0862 41.8705L23.8303 40.3914C24.1838 40.2812 24.5692 40.3707 24.8378 40.6253Z" fill="#D4145A"/>
<path d="M39.1621 40.6253L32 47.4125L36.0032 48.7763C37.3359 49.2303 38.8107 48.8355 39.7385 47.7768L44.9137 41.8705L40.1696 40.3914C39.8161 40.2812 39.4307 40.3707 39.1621 40.6253Z" fill="#D4145A"/>
<path d="M23.5485 58.3859H16.2663C15.8619 58.3859 15.5342 58.0582 15.5342 57.6538V54.4283C15.5342 54.0239 15.8619 53.6962 16.2663 53.6962H23.5485C23.9529 53.6962 24.2807 54.0239 24.2807 54.4283V57.6538C24.2808 58.058 23.9529 58.3859 23.5485 58.3859Z" fill="#EDA558"/>
<path d="M49.2451 19.1288C49.2451 19.1288 43.1409 18.6443 41.0521 13.0295C41.0521 13.0295 26.296 24.8433 14.0647 19.1288V16.1465C14.0647 7.22899 21.2938 0 30.2113 0H33.0987C42.0161 0 49.2451 7.22899 49.2451 16.1465V19.1288Z" fill="#FD9727"/>
<path d="M33.0985 0H30.2111C29.4859 0 28.772 0.0486249 28.072 0.14125C35.5896 1.13637 41.4747 7.30299 42.0352 14.9493C44.6094 18.7602 49.245 19.1288 49.245 19.1288V16.1465C49.245 7.22899 42.016 0 33.0985 0Z" fill="#FF6D3A"/>
<path d="M52.7858 53.2294C52.252 53.2294 51.8191 53.6621 51.8191 54.1961V63.9998H53.7525V54.196C53.7526 53.6621 53.3197 53.2294 52.7858 53.2294Z" fill="#D4145A"/>
<path d="M11.2141 53.2294C10.6802 53.2294 10.2473 53.6621 10.2473 54.1961V63.9998H12.1807V54.196C12.1807 53.6621 11.7479 53.2294 11.2141 53.2294Z" fill="#D4145A"/>
<path d="M46.5425 26.2266V27.9899C46.5425 29.5099 45.4552 30.7998 43.9569 31.0566L34.2291 32.7248C33.7033 32.8148 33.3502 33.3142 33.4403 33.8399C33.5209 34.3104 33.9293 34.6427 34.3911 34.6427C34.4453 34.6427 34.5002 34.6382 34.5554 34.6287L44.2833 32.9605C46.7115 32.544 48.474 30.4537 48.474 27.9899V26.2266H46.5425Z" fill="#3D6687"/>
<path d="M34.5223 35.5727C33.6288 35.5727 32.8386 34.9298 32.6825 34.0195C32.508 33.0022 33.1913 32.036 34.2086 31.8615L37.3601 31.321C38.3776 31.1462 39.3436 31.8297 39.5181 32.8471C39.6926 33.8643 39.0092 34.8306 37.992 35.0051L34.8405 35.5456C34.7336 35.5638 34.6272 35.5727 34.5223 35.5727Z" fill="#D4145A"/>
</g>
<defs>
<clipPath id="clip0_2018_2322">
<rect width="64" height="64" fill="white"/>
</clipPath>
</defs>
</svg>
