<svg width="64" height="64" viewBox="0 0 64 64" fill="none" xmlns="http://www.w3.org/2000/svg">
<g clip-path="url(#clip0_2018_484)">
<path d="M32 64C49.6731 64 64 49.6731 64 32C64 14.3269 49.6731 0 32 0C14.3269 0 0 14.3269 0 32C0 49.6731 14.3269 64 32 64Z" fill="#FF633E"/>
<path d="M63.9998 32C63.9998 29.4845 63.7087 27.0371 63.1598 24.6888L53.2959 14.825C50.7861 12.0952 47.1856 10.384 43.1851 10.384C35.6008 10.384 29.4526 16.5322 29.4526 24.1165C29.4526 28.117 31.1637 31.7175 33.8934 34.2274L42.7623 43.1062H39.2508L34.5002 38.347C34.5002 38.347 27.7884 31.9848 27.3067 31.5261C26.5543 30.8097 25.7033 29.8115 24.3712 29.8115C24.1118 29.8115 21.5024 29.8115 18.5657 29.8115L15.7086 26.9202C15.4221 26.5389 14.9666 26.2908 14.4556 26.2908H8.99755C8.13555 26.2908 7.43018 26.9962 7.43018 27.8582V47.4239C7.43018 47.9056 7.65068 48.3382 7.99555 48.6261L21.8083 62.3417C25.0096 63.4166 28.4366 63.9997 31.9998 63.9997C49.6729 63.9999 63.9998 49.6731 63.9998 32Z" fill="#FF3200"/>
<path d="M9.85083 34.1805V45.972H19.767C21.9047 45.972 22.3203 45.9485 25.0717 48.4502C27.2652 50.4445 30.5347 50.5289 33.3851 50.5289H50.223C52.526 50.5289 54.3928 48.8673 54.3928 46.8176C54.3928 44.768 52.526 43.1064 50.223 43.1064H34.4242C34.1483 43.1064 33.8847 43.0053 33.6953 42.8269L23.8642 33.5675C23.6747 33.3892 23.4111 33.288 23.1353 33.288H10.8537C10.2998 33.2879 9.85083 33.6875 9.85083 34.1805Z" fill="#FFDBA9"/>
<path d="M34.5005 38.347C34.5005 38.347 27.7887 31.9849 27.307 31.5262C26.5546 30.8098 25.7036 29.8114 24.3715 29.8114C23.7547 29.8114 9.85083 29.8114 9.85083 29.8114V35.2257H23.0023L27.9872 39.9723C27.9976 39.9822 30.3918 42.259 30.3918 42.259C31.5216 43.3348 33.6043 43.5575 34.7342 42.4818C35.8641 41.406 35.6302 39.4229 34.5005 38.347Z" fill="#FFC473"/>
<path d="M14.5232 48.9913H8.93042C8.10542 48.9913 7.43042 48.3163 7.43042 47.4913V27.791C7.43042 26.966 8.10542 26.291 8.93042 26.291H14.5232C15.3482 26.291 16.0232 26.966 16.0232 27.791V47.4913C16.0232 48.3163 15.3482 48.9913 14.5232 48.9913Z" fill="#3C3B41"/>
<path d="M43.185 37.05C50.3281 37.05 56.1187 31.2594 56.1187 24.1162C56.1187 16.9731 50.3281 11.1825 43.185 11.1825C36.0419 11.1825 30.2512 16.9731 30.2512 24.1162C30.2512 31.2594 36.0419 37.05 43.185 37.05Z" fill="#394CE2"/>
<path d="M43.1852 11.1824L43.1851 37.0505C50.3283 37.0505 56.1193 31.2597 56.1193 24.1165C56.1192 16.9732 50.3284 11.1824 43.1852 11.1824Z" fill="#1C2EDE"/>
<path d="M43.1851 10.384C35.6009 10.384 29.4526 16.5322 29.4526 24.1165C29.4526 31.7007 35.6009 37.849 43.1851 37.849C50.7694 37.849 56.9176 31.7007 56.9176 24.1165C56.9176 16.5322 50.7694 10.384 43.1851 10.384ZM55.0438 27.0946C53.7539 27.9955 52.2024 28.7276 50.4773 29.2665C50.7419 27.882 50.9003 26.4335 50.9436 24.9518H55.3808C55.3314 25.6857 55.2173 26.4018 55.0438 27.0946ZM30.9894 24.9517H35.4265C35.4701 26.443 35.6304 27.9006 35.8981 29.2932C34.1825 28.7658 32.6351 28.0487 31.3438 27.1655C31.1603 26.4508 31.0405 25.7107 30.9894 24.9517ZM31.3188 21.1698C32.6111 20.2816 34.1615 19.5602 35.8816 19.03C35.6239 20.396 35.4694 21.8231 35.4265 23.2811H30.9894C31.0381 22.5583 31.1496 21.8528 31.3188 21.1698ZM44.0204 17.9982C45.6699 18.0516 47.2701 18.2555 48.7729 18.595C49.101 20.0798 49.2969 21.6578 49.347 23.2811H44.0204V17.9982ZM44.0204 16.4015V11.9206C44.7486 11.9697 45.4594 12.0826 46.1471 12.2537C47.0506 13.5578 47.783 15.1278 48.3193 16.872C46.9399 16.6068 45.4968 16.447 44.0204 16.4015ZM42.3498 16.3993C40.877 16.4403 39.4353 16.5951 38.056 16.8555C38.5916 15.1181 39.3224 13.554 40.2229 12.2538C40.9108 12.0826 41.6215 11.9697 42.3499 11.9206L42.3498 16.3993ZM42.3498 17.9961V23.2812H37.0231C37.0735 21.6508 37.2709 20.0662 37.6016 18.5757C39.1051 18.242 40.7044 18.0442 42.3498 17.9961ZM37.0233 24.9517H42.3499V30.322C40.7115 30.274 39.1189 30.0778 37.621 29.7468C37.2786 28.2313 37.0744 26.6162 37.0233 24.9517ZM42.3498 31.9187V36.3122C41.6211 36.2631 40.9101 36.1501 40.2221 35.9788C39.3366 34.701 38.6158 33.1688 38.0829 31.4678C39.454 31.7251 40.8866 31.878 42.3498 31.9187ZM44.0204 31.9166C45.4871 31.8715 46.9211 31.7133 48.2924 31.4512C47.759 33.1588 47.0363 34.6967 46.1479 35.9788C45.4599 36.1501 44.7489 36.2631 44.0203 36.3122V31.9166H44.0204ZM44.0204 30.32V24.9518H49.347C49.296 26.6092 49.0934 28.2177 48.7536 29.7277C47.2566 30.0645 45.6629 30.2667 44.0204 30.32ZM50.9438 23.2811C50.9013 21.8327 50.7486 20.4146 50.4939 19.0568C52.2236 19.5987 53.7781 20.3352 55.0689 21.2413C55.2281 21.902 55.3338 22.5835 55.3809 23.2811H50.9438ZM54.2295 18.8702C52.9808 18.2181 51.5866 17.6845 50.0933 17.281C49.695 15.7773 49.1654 14.3723 48.5166 13.1128C51.0139 14.3251 53.036 16.3623 54.2295 18.8702ZM37.8535 13.1128C37.2083 14.3657 36.6809 15.7626 36.2834 17.2572C34.8004 17.6517 33.4133 18.1737 32.168 18.8121C33.3649 16.3307 35.3755 14.3158 37.8535 13.1128ZM32.2243 29.534C33.4618 30.1628 34.8371 30.6778 36.3069 31.0671C36.7015 32.5273 37.2206 33.8925 37.8531 35.1199C35.4134 33.9354 33.4273 31.9632 32.2243 29.534ZM48.517 35.1199C49.153 33.8859 49.6743 32.5128 50.0698 31.0436C51.5503 30.6452 52.9334 30.1191 54.1746 29.4763C52.9746 31.9321 50.9761 33.926 48.517 35.1199Z" fill="#83CAFF"/>
<path d="M43.1852 10.384L43.1851 37.849C50.7693 37.849 56.9177 31.7007 56.9177 24.1165C56.9177 16.5322 50.7694 10.384 43.1852 10.384ZM55.3809 23.2811H50.9438C50.9013 21.8327 50.7487 20.4146 50.4939 19.0568C52.2237 19.5987 53.7782 20.3352 55.0689 21.2413C55.2283 21.9021 55.3338 22.5835 55.3809 23.2811ZM54.2296 18.8702C52.9808 18.2181 51.5867 17.6845 50.0933 17.281C49.6951 15.7773 49.1654 14.3723 48.5167 13.1128C51.0139 14.3251 53.0361 16.3623 54.2296 18.8702ZM44.0204 11.9206C44.7487 11.9697 45.4594 12.0826 46.1472 12.2537C47.0507 13.5578 47.7831 15.1278 48.3193 16.872C46.9399 16.6067 45.4968 16.4468 44.0204 16.4013V11.9206ZM44.0204 17.9982C45.6699 18.0516 47.2702 18.2555 48.7729 18.595C49.1011 20.0798 49.2969 21.6578 49.3471 23.2811H44.0204V17.9982ZM44.0204 24.9517H49.3471C49.2961 26.6091 49.0934 28.2176 48.7537 29.7276C47.2566 30.0645 45.6628 30.2667 44.0204 30.3198V24.9517ZM46.1481 35.9788C45.4601 36.1501 44.7491 36.2631 44.0204 36.3122V31.9166C45.4872 31.8715 46.9212 31.7133 48.2924 31.4512C47.7591 33.1588 47.0364 34.6967 46.1481 35.9788ZM48.5171 35.1199C49.1531 33.8859 49.6743 32.5127 50.0698 31.0436C51.5503 30.6451 52.9334 30.1191 54.1747 29.4763C52.9747 31.9321 50.9762 33.926 48.5171 35.1199ZM55.0438 27.0946C53.7539 27.9955 52.2024 28.7276 50.4773 29.2665C50.7419 27.882 50.9003 26.4335 50.9437 24.9518H55.3808C55.3314 25.6857 55.2173 26.4018 55.0438 27.0946Z" fill="#00A6FF"/>
</g>
<defs>
<clipPath id="clip0_2018_484">
<rect width="64" height="64" fill="white"/>
</clipPath>
</defs>
</svg>
