<svg width="256" height="255" viewBox="0 0 256 255" fill="none" xmlns="http://www.w3.org/2000/svg">
<path opacity="0.1" d="M225.223 218.671C220.022 224.146 215.101 227.677 211.213 230.466C165.51 263.259 111.431 253.7 99.9379 251.366C82.9661 247.919 50.1597 241.255 26.4414 213.363C-9.44245 171.164 -3.85482 104.682 23.9791 60.7952C29.0704 52.7676 55.964 8.21285 110.625 1.06768C143.705 -3.25646 182.266 5.46486 210.191 28.8603C268.808 77.9694 264.635 177.178 225.223 218.671Z" fill="#FEFEFE"/>
<path d="M173.522 251.757C166.103 251.884 159.964 245.952 159.837 238.534L159.078 194.22L189.937 193.692L190.696 238.005C190.823 245.424 184.89 251.563 177.471 251.69L173.522 251.757Z" fill="white"/>
<path d="M115.753 252.746C108.334 252.873 102.195 246.941 102.068 239.523L101.31 195.21L132.168 194.681L132.927 238.995C133.054 246.413 127.122 252.552 119.703 252.679L115.753 252.746Z" fill="white"/>
<path d="M221.752 193.784L221.207 197.868C219.328 211.909 207.682 222.28 193.515 222.523L97.4877 224.167C83.3201 224.41 71.3259 214.444 68.9679 200.475L68.2835 196.412C67.0144 188.922 68.2582 181.093 71.7729 174.357L74.1903 169.73C76.407 165.492 76.817 160.455 75.3095 155.917L70.3174 140.838C66.7939 130.186 68.5473 118.362 75.0058 109.191L76.286 107.376C79.309 103.08 80.2764 97.707 78.9448 92.6255L71.725 65.1165C69.2521 55.6837 71.2094 45.8195 77.0991 38.0438C82.9891 30.2754 91.9565 25.7215 101.703 25.5545L127.283 25.1166C127.505 27.2463 129.332 28.7856 131.524 28.7481L152.809 28.3837C155.001 28.3462 156.774 26.7452 156.922 24.6092L182.503 24.1712C192.249 24.0044 201.367 28.2486 207.52 35.811C213.672 43.3804 215.966 53.1719 213.817 62.6838L207.544 90.4238C206.379 95.5481 207.537 100.884 210.706 105.075L212.04 106.838C218.816 115.782 220.966 127.546 217.816 138.305L213.336 153.554C211.992 158.14 212.574 163.161 214.935 167.321L217.509 171.862C221.252 178.473 222.764 186.255 221.752 193.784Z" fill="white"/>
<path d="M209.773 176.246L207.199 171.705C203.64 165.427 202.778 157.975 204.81 151.05L209.282 135.807C211.661 127.699 210.057 118.945 204.957 112.208L203.618 110.439C198.874 104.172 197.137 96.1307 198.871 88.4642L205.147 60.7231C206.682 53.9361 205.017 46.9036 200.627 41.5047C196.236 36.1058 189.611 33.1061 182.654 33.2252L150.017 33.784L134.497 34.0497L101.86 34.6085C94.9027 34.7276 88.384 37.9524 84.1812 43.4983C79.9783 49.0443 78.5552 56.1715 80.3219 62.902L87.5432 90.3911C89.539 97.9938 88.0781 106.079 83.5514 112.505L82.2735 114.314C77.4078 121.221 76.1038 130.023 78.7586 138.044L83.7505 153.124C86.0181 159.975 85.4119 167.452 82.0702 173.848L79.6531 178.474C77.0118 183.53 76.096 189.311 77.0455 194.935L77.7293 198.887C79.3377 208.415 87.6667 215.225 97.3275 215.06L134.869 214.417L155.82 214.059L193.361 213.416C203.022 213.25 211.113 206.158 212.394 196.581L212.942 192.553C213.698 186.9 212.586 181.208 209.773 176.246Z" fill="#CE3131"/>
<path d="M177.94 86.0792C177.886 82.9472 175.304 80.4516 172.172 80.5053L113.953 81.5021C110.822 81.5557 108.326 84.1382 108.38 87.2702L109.716 165.286C109.769 168.418 112.352 170.914 115.483 170.86L173.702 169.863C176.834 169.81 179.329 167.227 179.276 164.095L177.94 86.0792Z" fill="white"/>
<path d="M170.065 95.0352C170.1 97.0804 168.471 98.7666 166.426 98.8016L120.324 99.591C118.279 99.626 116.593 97.9965 116.558 95.9513L116.556 95.8663C116.521 93.8212 118.151 92.1349 120.196 92.0999L166.298 91.3106C168.343 91.2755 170.029 92.9051 170.064 94.9501L170.065 95.0352Z" fill="#EF4343"/>
<path d="M170.34 111.088C170.375 113.133 168.745 114.819 166.7 114.854L120.599 115.643C118.553 115.678 116.867 114.049 116.832 112.004L116.831 111.919C116.796 109.874 118.425 108.187 120.47 108.152L166.572 107.363C168.617 107.328 170.303 108.957 170.338 111.003L170.34 111.088Z" fill="#EF4343"/>
<path d="M169.619 131.56C169.592 129.992 168.3 128.743 166.732 128.77L149.936 129.057C148.368 129.084 147.119 130.377 147.146 131.945L147.433 148.74C147.46 150.308 148.753 151.557 150.321 151.53L167.116 151.243C168.684 151.216 169.934 149.923 169.907 148.355L169.619 131.56Z" fill="#EF4343"/>
<path d="M108.748 202.554L109.379 239.397C109.436 242.738 112.284 245.312 115.625 245.255L119.575 245.188C122.915 245.13 126.023 242.454 125.966 239.113L125.335 202.27L108.748 202.554Z" fill="#CE3131"/>
<path d="M166.537 201.565L167.168 238.408C167.225 241.748 170.052 244.323 173.393 244.266L177.343 244.199C180.683 244.141 183.813 241.464 183.755 238.124L183.125 201.281L166.537 201.565Z" fill="url(#paint0_linear_2018_1569)"/>
<path d="M158.559 9.02376L125.113 9.59637C116.76 9.73939 110.106 16.6245 110.249 24.9784L110.358 31.3328L174.05 30.2423L173.941 23.8879C173.798 15.5341 166.913 8.88075 158.559 9.02376ZM152.809 28.3836L131.524 28.748C129.331 28.7855 127.505 27.2462 127.283 25.1165C127.266 24.9909 127.257 24.8724 127.255 24.7466C127.215 22.4286 129.066 20.641 131.384 20.6014L136.783 20.5089C136.745 18.2871 138.581 16.0332 140.899 15.9935L143.298 15.9524C145.616 15.9128 147.536 18.1024 147.574 20.3242L152.669 20.2369C154.987 20.1972 156.898 21.9203 156.938 24.2383C156.94 24.3642 156.935 24.4829 156.922 24.609C156.774 26.7451 155.001 28.3461 152.809 28.3836Z" fill="white"/>
<path d="M94.603 99.4472C94.5716 99.4472 94.5396 99.4423 94.5082 99.4319C94.3474 99.3796 94.2595 99.2068 94.312 99.0461C95.1553 96.4573 93.5332 90.3551 90.3017 78.1982C89.1622 73.9114 87.8706 69.0528 86.4066 63.2983C84.839 57.137 85.552 52.0003 88.5258 48.031C94.4289 40.1515 107.4 39.5991 107.53 39.5945C107.706 39.5855 107.841 39.7205 107.847 39.8896C107.853 40.0585 107.721 40.2003 107.552 40.2064C107.424 40.2109 94.7398 40.7548 89.0143 48.4C86.1583 52.2136 85.4805 57.1754 87 63.1473C88.4631 68.8987 89.7542 73.7556 90.8934 78.0408C94.1559 90.3142 95.7934 96.4747 94.894 99.2357C94.8521 99.365 94.7321 99.4472 94.603 99.4472Z" fill="white"/>
<path d="M173.416 181.594C174.656 180.594 176.327 180.107 178.005 180.258L224.47 184.394C225.326 184.471 226.265 185.101 226.265 185.854V186.615C226.265 187.033 225.773 187.43 225.418 187.709C225.062 187.987 224.444 188.12 223.97 188.074L181.505 183.958C180.373 183.848 179.207 184.185 178.388 184.878C177.568 185.571 177.126 186.547 177.213 187.541L178.39 201.14C177.057 203.553 175.378 203.493 174.062 202.861C172.724 202.218 171.875 200.994 171.845 199.659L171.52 185.487C171.486 184.011 172.176 182.594 173.416 181.594Z" fill="#332F2B"/>
<path d="M243.843 152.522C243.019 152.242 239.202 149.158 237.656 151.657C236.109 154.156 231.569 169.146 237.349 169.504C243.129 169.862 243.843 152.522 243.843 152.522Z" fill="#050505"/>
<path d="M226.264 208.574H152.179V251.739H226.264V208.574Z" fill="#1D1C1C"/>
<path d="M115.909 224.972C116.553 223.67 143.155 209.071 151.721 204.394C153.458 203.446 155.373 202.949 157.351 202.924L215.906 202.167C217.439 202.147 218.849 201.323 219.62 199.998L239.076 166.532L244.297 147.606C245.076 144.783 247.972 143.105 250.809 143.832L251.352 143.971C254.189 144.699 255.921 147.565 255.244 150.415L251.219 167.36L230.312 209.437C229.591 210.887 228.128 211.818 226.51 211.856L161.945 213.388C160.213 213.429 158.51 213.842 156.951 214.599L124.166 230.516C121.959 231.587 119.322 231.236 117.473 229.623C116.072 228.401 115.015 226.781 115.909 224.972Z" fill="#050505"/>
<path d="M143.301 251.38C143.301 253.083 144.646 254.494 146.261 254.494H231.573C233.188 254.494 234.53 253.083 234.53 251.38V251.36C234.53 249.657 233.188 248.372 231.573 248.372H146.261C144.646 248.372 143.301 249.657 143.301 251.36L143.301 251.38Z" fill="#1D1C1C"/>
<path d="M204.19 239.494H177.315C176.116 239.494 175.14 238.517 175.14 237.318V227.587C175.14 226.387 176.116 225.411 177.315 225.411H204.19C205.39 225.411 206.366 226.387 206.366 227.587V237.318C206.366 238.517 205.39 239.494 204.19 239.494ZM177.315 225.717C176.284 225.717 175.446 226.556 175.446 227.587V237.318C175.446 238.349 176.284 239.187 177.315 239.187H204.19C205.221 239.187 206.06 238.349 206.06 237.318V227.587C206.06 226.556 205.221 225.717 204.19 225.717H177.315Z" fill="#2C2C2C"/>
<path d="M213.238 185.71C213.253 185.71 213.268 185.709 213.283 185.708C219.28 184.992 225.027 173.674 225.269 173.193C225.363 173.005 225.287 172.776 225.099 172.682C224.911 172.587 224.683 172.664 224.589 172.851C224.531 172.965 218.785 184.285 213.193 184.952C212.984 184.976 212.835 185.166 212.86 185.375C212.883 185.568 213.048 185.71 213.238 185.71Z" fill="url(#paint1_linear_2018_1569)"/>
<path d="M200.541 177.971C199.653 177.555 191.658 177.336 188.296 177.971C184.934 178.605 176.813 177.971 176.813 177.971C176.813 177.971 173.514 175.306 171.992 176.955C171.992 176.955 170.088 178.351 170.088 179.112C170.088 179.874 169.391 181.746 170.977 182.142C172.563 182.538 175.925 182.142 175.925 182.142L197.305 183.617L200.541 177.971Z" fill="#FFCFA1"/>
<path d="M231.253 154.932C231.253 154.932 228.201 163.701 227.763 166.508C227.697 166.934 227.351 167.256 226.918 167.295C225.42 167.43 222.064 167.234 219.041 163.54C218.551 162.941 218.472 162.109 218.821 161.426L222.881 153.461L231.253 154.932Z" fill="#FFCFA1"/>
<path d="M228.524 140.677C228.524 140.677 223.308 145.355 221.734 148.342C220.161 151.33 218.589 153.017 221.852 155.257C225.114 157.496 228.908 157.097 231.924 154.784C231.924 154.784 236.612 151.238 236.926 149.051C237.239 146.863 228.524 140.677 228.524 140.677Z" fill="#FFCFA1"/>
<path d="M231.717 152.034L231.556 151.852C231.351 151.621 231.381 151.265 231.624 151.075C232.566 150.338 234.554 148.571 233.531 147.478C232.213 146.071 226.386 141.819 226.043 138.904C225.714 136.103 228.189 133.814 230.332 133.821C230.475 133.822 230.596 133.929 230.604 134.072L230.624 134.419C230.637 134.657 230.934 134.758 231.089 134.577C231.238 134.404 231.522 134.487 231.551 134.713C231.665 135.591 232.31 137.223 235.127 139.2C239.131 142.008 241.212 145.101 239.901 148.156C239.818 148.35 239.973 148.55 240.183 148.525C240.596 148.476 241.155 148.62 241.579 149.517C242.318 151.077 240.628 153.471 237.009 154.421C236.837 154.466 236.748 154.662 236.844 154.812C237.179 155.342 237.552 156.406 235.257 156.548C232.884 156.695 231.498 155.959 230.991 155.618C230.865 155.533 230.837 155.361 230.929 155.239L232.73 152.851C232.832 152.716 232.782 152.521 232.628 152.451L231.717 152.034Z" fill="#332F2B"/>
<path d="M231.352 152.544C231.352 152.544 234.029 149.257 235.223 151.068C236.417 152.88 232.442 154.852 231.033 154.376L231.352 152.544Z" fill="#FFCFA1"/>
<path d="M229.605 164.799C229.605 164.799 220.222 159.206 215.099 161.303C209.976 163.4 188.296 191.933 188.296 191.933L204.389 201.982C204.389 201.982 241.101 170.836 229.605 164.799Z" fill="white"/>
<path d="M187.571 183.425C187.698 182.929 188.116 182.561 188.624 182.499L191.355 182.166C192.821 181.987 194.24 182.827 194.764 184.211C195.07 185.021 195.326 186.003 195.375 187.09C195.375 187.09 203.256 189.386 210.001 186.519C209.915 188.602 209.618 191.305 208.835 194.363C204.97 193.964 200.554 192.638 195.508 190.082L188.051 184.743C187.635 184.444 187.444 183.921 187.571 183.425Z" fill="#FFCFA1"/>
<path d="M230.901 165.392C230.901 165.392 235.537 170.918 232.176 178.263C228.814 185.607 221.849 194.965 210.131 194.956C211.298 187.112 211.298 187.112 211.298 187.112C211.298 187.112 231.31 169.024 230.901 165.392Z" fill="white"/>
<path d="M111.483 212.705C112.814 214.992 115.145 218.946 117.091 221.987C118.26 223.816 119.152 224.714 119.802 225.137C119.735 225.182 119.671 225.224 119.611 225.263C119.29 225.467 118.865 225.39 118.626 225.089C114.393 219.734 111.477 215.158 110.462 213.512C110.252 213.172 110.47 212.728 110.866 212.699C111.064 212.684 111.271 212.69 111.483 212.705Z" fill="url(#paint2_linear_2018_1569)"/>
<path d="M117.09 221.987C115.144 218.946 112.813 214.992 111.482 212.705C115.575 212.994 122.062 218.488 122.062 218.488L123.399 220.388C122.435 223.021 120.775 224.473 119.801 225.137C119.152 224.714 118.26 223.816 117.09 221.987Z" fill="url(#paint3_linear_2018_1569)"/>
<path d="M126.727 218.525L123.083 220.824C122.689 221.073 122.168 221.013 121.845 220.67C121.523 220.328 121.158 219.824 120.958 219.159C120.835 218.75 120.942 218.307 121.24 218.006L124.233 214.98L126.727 218.525Z" fill="#FFCFA1"/>
<path d="M123 215.475C126.971 212.643 157.194 191.204 161.46 191.737C166.028 192.308 188.296 191.933 188.296 191.933L203.541 201.453C203.541 201.453 199.468 209.057 178.751 204.489L162.793 203.701L125.75 220.024C125.492 220.138 125.188 220.043 125.04 219.802L122.847 216.231C122.691 215.978 122.758 215.647 123 215.475Z" fill="#2C2C2C"/>
<path d="M192.069 180.907L192.901 178.577C192.934 178.484 193.031 178.429 193.128 178.449L194.344 178.7C194.402 178.712 194.451 178.748 194.479 178.8C194.507 178.852 194.51 178.913 194.488 178.968L193.464 181.507C193.444 181.557 193.405 181.596 193.355 181.616C193.305 181.637 193.249 181.636 193.2 181.614L192.175 181.154C192.08 181.112 192.034 181.004 192.069 180.907Z" fill="white"/>
<path d="M180.648 185.4C181.889 184.4 183.559 183.914 185.237 184.064L231.76 188.2C232.615 188.277 233.612 188.908 233.612 189.66V190.422C233.612 190.839 233.063 191.237 232.707 191.515C232.352 191.794 231.705 191.926 231.23 191.881L188.752 187.764C187.619 187.654 186.446 187.992 185.627 188.684C184.808 189.377 184.362 190.354 184.449 191.348L185.624 204.946C184.291 207.359 182.611 207.299 181.295 206.667C179.957 206.025 179.108 204.8 179.078 203.465L178.752 189.293C178.718 187.818 179.408 186.4 180.648 185.4Z" fill="#332F2B"/>
<path d="M91.8186 243.407C73.2901 243.407 61.172 239.878 53.1258 232.504C36.9205 217.652 37.9293 188.157 39.6004 139.292C40.4986 113.033 41.6162 80.3521 40.2208 41.6996L44.5041 41.5451C45.9048 80.3482 44.7842 113.112 43.8839 139.439C42.2549 187.074 41.2716 215.826 56.0215 229.344C66.5131 238.96 85.3459 241.313 118.994 237.213L119.512 241.468C108.97 242.752 99.7982 243.407 91.8186 243.407Z" fill="#CE3131"/>
<path d="M95.0711 121.944L91.7024 122.766C87.5972 124.002 84.1293 124.318 81.1639 124.004C71.9049 123.024 67.5586 115.891 64.1173 111.355C59.5739 105.366 54.5576 106.401 54.5576 106.401L57.6277 119.616C64.4973 130.562 74.3234 131.082 80.9287 129.831C85.1334 129.035 88.0335 127.521 88.0335 127.521C95.766 125.27 95.0711 121.944 95.0711 121.944Z" fill="white"/>
<path d="M102.695 128.372C102.669 127.688 102.333 127.053 101.783 126.646L96.4125 122.675C96.4125 122.675 96.5219 121.882 98.0155 121.712C99.5092 121.543 99.5871 119.94 99.5871 119.94C99.5871 119.94 97.5122 120.304 94.4476 120.939C92.6952 121.303 91.4715 122.432 90.7441 123.332L91.7602 125.763C95.1679 127.835 98.8531 129.02 102.74 129.56L102.695 128.372Z" fill="#FFCFA1"/>
<path d="M22.5811 201.501L49.2428 202.532V192.786L26.7284 190.724L22.5811 201.501Z" fill="white"/>
<path d="M49.95 75.9921C49.95 75.9921 43.1722 78.2514 38.7814 87.9343C37.581 90.5817 31.0624 91.0516 30.3896 96.4825C30.0422 99.2863 27.9674 101.532 25.1747 101.96C18.219 103.026 7.49964 106.638 5.78452 118.715C4.47551 127.932 9.17465 131.428 14.1062 132.638C17.7284 133.526 20.1355 137.049 19.4029 140.706C18.7001 144.214 19.748 148.268 25.8245 151.475C39.4416 158.66 53.0403 134.453 53.0403 134.453L55.8273 92.1847L49.95 75.9921Z" fill="#332F2B"/>
<path d="M10.2641 246.287L9.71437 250.806C9.61003 251.664 8.93507 252.341 8.07688 252.44C6.62809 252.605 4.30312 252.775 2.02844 252.534C1.02993 252.429 0.381677 251.418 0.68588 250.461C1.24041 248.716 2.25484 246.097 3.71756 244.556H8.73106C9.65797 244.556 10.376 245.367 10.2641 246.287Z" fill="url(#paint4_linear_2018_1569)"/>
<path d="M49.5319 193.344L50.378 198.322C50.378 198.322 47.5443 227.025 47.0402 238.507C46.9612 240.307 47.4268 242.086 48.3716 243.62L53.2992 251.622L40.7761 244.232L40.5269 242.704L42.5769 239.885L39.8917 207.73C39.7339 205.841 40.1237 203.947 41.0144 202.273L43.6047 197.407L49.5319 193.344Z" fill="#FFCFA1"/>
<path d="M54.1237 252.781H50.1274C49.3794 252.781 48.6739 252.438 48.2176 251.845C46.9717 250.226 44.3906 247.068 43.1562 246.985C41.4948 246.874 41.7073 252.781 41.7073 252.781H40.776L39.5963 245.441C39.2995 243.595 40.2178 241.765 41.8762 240.9C41.8762 240.9 42.2559 243.708 44.3155 244.951C46.3748 246.193 52.696 250.643 52.696 250.643C52.696 250.643 53.4702 250.532 54.3202 250.686C55.5812 250.914 55.405 252.781 54.1237 252.781Z" fill="url(#paint5_linear_2018_1569)"/>
<path d="M32.3796 195.708C32.3796 195.708 15.7785 227.199 13.1395 234.389C10.5007 241.578 9.57621 247.576 9.54077 248.144C9.48546 249.032 8.38153 249.883 5.33887 249.883C3.76847 249.883 2.99942 249.254 2.6229 248.644C2.3017 248.124 2.28497 247.474 2.55571 246.926C3.51599 244.983 6.56351 238.772 7.69217 235.955C9.03968 232.592 11.9383 217.35 13.5281 212.051C15.1177 206.752 16.9147 201.003 23.8373 195.708C23.8373 195.708 28.5895 191.054 32.3796 195.708Z" fill="#FFCFA1"/>
<path d="M42.8668 144.109C47.1491 125.963 36.3008 115.7 36.3008 115.7C40.6835 111.493 47.3729 108.754 51.6184 107.328C54.1361 106.482 56.9121 107.06 58.874 108.85C62.284 111.962 67.0274 117.208 66.1065 121.65C65.2791 125.642 57.7415 145.558 57.7415 145.558C57.7415 145.558 50.7715 148.857 42.8668 144.109Z" fill="#EF4343"/>
<path d="M33.3724 153.093C35.1152 147.843 42.867 144.109 42.867 144.109C50.7717 148.857 57.7417 145.558 57.7417 145.558C57.7417 145.558 59.3048 151.533 58.2259 157.085C57.147 162.638 50.3784 198.322 50.3784 198.322C39.7133 200.483 23.3105 196.148 23.3105 196.148C30.1038 184.087 31.6296 158.343 33.3724 153.093Z" fill="#2C2C2C"/>
<path d="M47.8367 94.1486L44.355 109.787C44.0217 111.165 45.2775 110.939 46.6702 110.677C48.9509 110.247 51.8904 109.361 52.8731 107.587C52.973 107.406 53.023 107.202 53.0513 106.997L54.547 96.1527C54.6658 95.2925 54.2006 94.4575 53.4066 94.1054L50.5203 92.8256C49.4088 92.3328 48.1226 92.9669 47.8367 94.1486Z" fill="#FFCFA1"/>
<path d="M56.9513 81.6815C56.9513 81.6815 59.8897 85.0578 59.7894 91.6421C59.6889 98.2265 56.5991 99.7774 54.0708 98.9608C51.5425 98.1442 48.035 96.3639 45.9899 91.0782C43.9449 85.7924 53.0436 77.4718 56.9513 81.6815Z" fill="#FFCFA1"/>
<path d="M49.9007 89.4499C49.9007 89.4499 50.9379 80.2523 57.9254 83.5566L59.0003 85.4977C59.0003 85.4977 63.6718 82.4026 60.505 78.2846C57.3382 74.1665 51.6075 73.4842 47.0723 78.2462C42.5371 83.0083 40.3884 86.6301 42.0297 90.7733C43.6711 94.9164 46.3861 92.4577 46.3861 92.4577C46.3861 92.4577 46.0075 89.1484 47.3235 88.121C48.6396 87.0937 49.3568 89.4616 49.3568 89.4616L49.9007 89.4499Z" fill="#332F2B"/>
<path d="M48.6958 89.9412C48.6958 89.9412 49.2567 85.2163 46.5859 85.9003C43.9151 86.5845 46.2945 90.3758 47.2963 91.7167L48.6958 89.9412Z" fill="#FFCFA1"/>
<path opacity="0.44" d="M53.1933 76.4951C51.5601 77.0302 50.1019 78.0083 48.7767 79.0891C47.4476 80.1771 46.2954 81.4713 45.3226 82.8789C44.3486 84.2878 43.5629 85.8257 43.0155 87.4467C42.7419 88.2576 42.5249 89.0829 42.3644 89.9264C42.2004 90.7702 42.0628 91.6332 41.801 92.4797C41.5459 93.3222 41.1307 94.1583 40.4943 94.8051C39.8721 95.4619 39.1069 95.9378 38.34 96.3532C37.5701 96.7675 36.7836 97.1269 36.0439 97.5464C35.301 97.9582 34.6236 98.4612 34.0203 99.0509C32.8108 100.228 31.94 101.728 31.5005 103.359C31.2671 104.179 31.0894 105.033 30.7811 105.872C30.4809 106.705 29.9999 107.538 29.2793 108.121C28.5715 108.715 27.7192 109.072 26.8709 109.317C26.0177 109.559 25.1545 109.702 24.3038 109.848C22.606 110.115 20.9523 110.558 19.3757 111.219C17.8059 111.884 16.3155 112.755 15.0148 113.854C13.7143 114.948 12.6015 116.281 11.8467 117.8C11.0878 119.313 10.7294 121.034 10.9536 122.711C11.1853 124.376 11.923 126.008 13.174 127.143C13.7939 127.709 14.5295 128.155 15.3375 128.388C16.1476 128.616 17.0131 128.645 17.8472 128.504C19.5111 128.242 21.1062 127.177 21.7325 125.571L21.8585 125.618C21.2453 127.292 19.6123 128.433 17.8899 128.739C17.0254 128.903 16.1211 128.892 15.2607 128.668C14.3993 128.439 13.6093 127.982 12.9441 127.397C11.6047 126.214 10.8288 124.503 10.572 122.763C10.3239 121.004 10.6903 119.19 11.4686 117.614C12.2435 116.028 13.3854 114.644 14.7187 113.506C16.0529 112.362 17.5762 111.459 19.1829 110.766C20.7909 110.077 22.4978 109.609 24.2126 109.327C25.0639 109.175 25.9085 109.028 26.718 108.792C27.5234 108.553 28.2975 108.217 28.9154 107.689C29.5387 107.169 29.9706 106.463 30.2596 105.677C30.5552 104.894 30.7383 104.052 30.9834 103.211C31.4549 101.507 32.3908 99.9173 33.6713 98.6919C34.308 98.0771 35.0354 97.5467 35.8076 97.1262C36.5754 96.6985 37.3663 96.3443 38.1213 95.9445C38.8731 95.5447 39.5983 95.0964 40.1728 94.4974C40.7589 93.9098 41.1427 93.1564 41.3943 92.3517C41.6501 91.5467 41.7931 90.6982 41.9644 89.8475C42.133 88.9938 42.3623 88.1451 42.6474 87.3204C43.2191 85.6685 44.0307 84.1051 45.0349 82.678C46.0557 81.2646 47.2538 79.9754 48.6235 78.9008C49.9896 77.8337 51.4796 76.8775 53.1536 76.3665L53.1933 76.4951Z" fill="white"/>
<path opacity="0.44" d="M44.0033 88.3418C43.9485 89.4548 43.8823 90.5736 43.6767 91.6816C43.4755 92.7857 43.1513 93.8953 42.5501 94.883C42.2502 95.3733 41.8853 95.8328 41.4623 96.2267C41.0413 96.622 40.5803 96.9611 40.1172 97.2804C39.1826 97.9079 38.2757 98.5131 37.4478 99.2335C35.7967 100.649 34.4097 102.421 33.9749 104.541C33.4783 106.639 33.6134 108.96 32.6809 111.152C32.2083 112.237 31.4208 113.173 30.5032 113.884C29.5835 114.601 28.5437 115.125 27.4726 115.52C25.3143 116.299 23.0766 116.573 20.9315 117.062C18.8059 117.544 16.677 118.356 15.1721 119.931C14.4441 120.707 13.8003 121.668 13.7878 122.74C13.778 123.816 14.2773 124.85 14.7673 125.837L14.6489 125.901C14.0998 124.944 13.5207 123.924 13.4798 122.741C13.4625 122.156 13.6171 121.568 13.8723 121.05C14.1258 120.529 14.4588 120.057 14.8363 119.623C16.395 117.895 18.6144 116.998 20.7795 116.442C22.9568 115.867 25.1825 115.606 27.2178 114.836C28.231 114.452 29.1994 113.949 30.0327 113.287C30.8673 112.627 31.5459 111.797 31.9599 110.833C32.8248 108.89 32.7341 106.601 33.2655 104.373C33.5259 103.252 34.0085 102.158 34.6801 101.222C35.3402 100.275 36.158 99.4582 37.0403 98.7457C37.9147 98.0244 38.8829 97.4157 39.8133 96.8266C40.7446 96.2361 41.5874 95.5547 42.167 94.6404C42.7691 93.7445 43.1322 92.6925 43.3759 91.6202C43.6192 90.5442 43.7448 89.4373 43.8692 88.3311L44.0033 88.3418Z" fill="white"/>
<path d="M51.4456 121.808L44.8985 107.349C42.1066 108.065 36.2277 115.861 36.2277 115.861C36.2277 115.861 41.8998 139.309 36.3006 145.556C31.3304 151.101 18.872 191.695 16.1354 200.746C16.0024 201.185 16.0722 201.662 16.3265 202.044C16.5809 202.426 16.9928 202.675 17.4496 202.722L31.0745 204.125C31.8262 204.202 32.5228 203.722 32.7177 202.992L52.14 130.242C52.8895 127.435 52.6441 124.455 51.4456 121.808Z" fill="white"/>
<path d="M66.2232 123.815C66.2232 123.815 68.5255 115.877 58.0867 108.226C58.0867 108.226 53.5839 104.798 53.0523 106.997L56.769 124.798L45.2321 203.487C45.1577 203.994 45.3413 204.505 45.7216 204.85C46.1019 205.194 46.6288 205.326 47.1266 205.202L49.9664 204.492C50.5367 204.349 50.9761 203.894 51.0982 203.319C52.7131 195.721 63.4415 144.572 60.2944 141.201C60.2941 141.201 66.4797 125.391 66.2232 123.815Z" fill="white"/>
<path d="M36.2274 115.861C36.2274 115.861 29.4042 143.381 43.9605 148.612C58.5168 153.844 77.167 140.424 77.167 140.424C77.167 140.424 80.3512 138.832 82.1708 139.287C83.9903 139.742 83.7629 132.919 80.3512 131.099C76.9396 129.28 73.0731 137.013 73.0731 137.013C73.0731 137.013 41.0865 152.949 44.0019 125.534C44.0019 125.534 48.2818 116.316 36.2274 115.861Z" fill="white"/>
<path d="M56.7251 155.897L64.6389 128.26C64.7287 127.947 64.9964 127.718 65.3206 127.68C66.7544 127.513 70.9091 127.043 75.7063 126.637C81.4846 126.148 88.1949 125.752 92.2048 126.089C92.7748 126.137 93.1193 126.74 92.8659 127.253C90.5856 131.866 81.206 150.632 76.5091 156.779C76.3535 156.983 76.1128 157.102 75.8566 157.1L57.4949 156.929C56.9607 156.924 56.578 156.411 56.7251 155.897Z" fill="#F3B7B7"/>
<path d="M76.528 124.241L82.2656 123.285C82.5713 123.234 82.8215 123.526 82.7245 123.82L82.1564 125.542C82.1071 125.691 81.9764 125.8 81.82 125.821L76.2986 126.558C76.013 126.596 75.7775 126.337 75.8431 126.056L76.1947 124.553C76.2325 124.392 76.3639 124.268 76.528 124.241Z" fill="#F3B7B7"/>
<path d="M72.2311 129.099L72.7038 126.637C72.7512 126.39 72.9551 126.203 73.2052 126.178L84.7941 125.002C85.1842 124.962 85.4966 125.32 85.405 125.701L84.6682 128.769C84.6092 129.014 84.3955 129.191 84.1434 129.204L72.8187 129.774C72.45 129.793 72.1616 129.461 72.2311 129.099Z" fill="#F3B7B7"/>
<path d="M58.6365 149.22C58.6365 149.22 57.534 144.687 57.9787 143.079C58.4234 141.471 59.285 139.403 62.1569 139.862C65.0287 140.322 68.4165 141.532 68.4165 141.532C68.4165 141.532 68.2455 143.627 66.0627 142.951L67.4161 143.998C67.4161 143.998 67.2226 145.675 65.3791 144.779L66.638 146.168C66.638 146.168 65.8462 147.546 64.4899 146.662C63.1334 145.779 62.4832 149.766 58.6365 149.22Z" fill="#FFCFA1"/>
<path d="M47.0166 148.866C47.0107 148.866 47.0049 148.866 46.999 148.866C40.3721 148.866 37.8374 143.85 37.8127 143.798C37.7239 143.611 37.8035 143.624 37.9902 143.535C38.1767 143.447 38.4004 143.643 38.4897 143.83C38.5128 143.878 40.8693 148.72 47.0334 149.002C47.2402 149.012 47.4002 148.745 47.3907 148.951C47.3816 149.152 47.2157 148.866 47.0166 148.866Z" fill="white"/>
<path d="M49.4329 140.172C49.3745 140.172 49.3154 140.159 49.2599 140.13C41.8902 136.287 43.7857 125.319 43.8702 124.854C43.9072 124.65 44.1032 124.514 44.3058 124.552C44.5094 124.589 44.6445 124.784 44.6078 124.987C44.5882 125.096 42.728 135.878 49.6067 139.465C49.7903 139.561 49.8615 139.787 49.7658 139.971C49.6989 140.099 49.5682 140.172 49.4329 140.172Z" fill="white"/>
<path d="M52.5655 124.002C51.3017 119.973 44.8982 107.349 44.8982 107.349L42.3086 109.015L47.0489 123.869C47.2524 124.507 47.8447 124.94 48.5139 124.94C48.8696 124.94 49.1643 125.216 49.1873 125.571L50.0082 138.226C50.0082 138.226 53.8293 128.032 52.5655 124.002Z" fill="white"/>
<path d="M59.7021 120.261C59.9051 119.772 59.9285 119.228 59.768 118.724L55.8263 106.342L53.408 104.41L53.1416 106.342L55.331 117.911L54.557 138.996L58.652 127.672C58.8519 127.12 58.8262 126.51 58.5802 125.976L58.3312 125.435C58.07 124.868 58.0577 124.218 58.2974 123.641L59.7021 120.261Z" fill="white"/>
<path d="M57.1178 5.07513C51.9189 5.07513 47.2888 7.80154 44.2861 12.049C41.2835 7.80154 36.6533 5.07513 31.4544 5.07513C22.4025 5.07513 15.0645 13.3304 15.0645 23.5139C15.0645 32.6002 30.7745 49.2514 40.9767 55.7975C42.9741 57.0791 45.5602 56.9661 47.4438 55.5225C56.2212 48.7961 73.5077 32.4756 73.5077 23.5138C73.5077 13.3304 66.1697 5.07513 57.1178 5.07513Z" fill="#CE3131"/>
<path d="M45.3775 39.3164C45.3547 39.3164 45.3319 39.3159 45.3092 39.3151C44.6499 39.2893 44.0619 38.894 43.7889 38.2937L36.1591 21.508L28.7819 29.5881C28.4514 29.9501 27.9836 30.1563 27.4933 30.1563H8.73699C7.77347 30.1563 6.99219 29.3751 6.99219 28.4115C6.99219 27.448 7.77338 26.6667 8.73699 26.6667H26.7238L35.3649 17.2025C35.7601 16.7696 36.3474 16.5642 36.9257 16.6555C37.5049 16.7471 37.9993 17.1232 38.242 17.657L45.5293 33.6894L53.0104 20.1523C53.3337 19.567 53.9652 19.2182 54.6302 19.254C55.2977 19.2894 55.8862 19.7032 56.1455 20.3192L59.1855 27.5392H75.4748C76.4383 27.5392 77.2196 28.3204 77.2196 29.284C77.2196 30.2476 76.4384 31.0288 75.4748 31.0288H58.027C57.325 31.0288 56.6914 30.6081 56.4191 29.9611L54.3252 24.9879L46.9046 38.4156C46.5964 38.9728 46.0107 39.3164 45.3775 39.3164Z" fill="white"/>
<defs>
<linearGradient id="paint0_linear_2018_1569" x1="267.609" y1="-87.334" x2="247.146" y2="-19.2558" gradientUnits="userSpaceOnUse">
<stop stop-color="#FDF53F"/>
<stop offset="1" stop-color="#D93C65"/>
</linearGradient>
<linearGradient id="paint1_linear_2018_1569" x1="217.83" y1="177.296" x2="220.697" y2="181.596" gradientUnits="userSpaceOnUse">
<stop stop-color="#CB236D"/>
<stop offset="1" stop-color="#4C246D"/>
</linearGradient>
<linearGradient id="paint2_linear_2018_1569" x1="119.481" y1="225.362" x2="110.625" y2="212.778" gradientUnits="userSpaceOnUse">
<stop stop-color="#2B3582"/>
<stop offset="1" stop-color="#150E42"/>
</linearGradient>
<linearGradient id="paint3_linear_2018_1569" x1="131.707" y1="198.003" x2="124.827" y2="207.129" gradientUnits="userSpaceOnUse">
<stop stop-color="#CB236D"/>
<stop offset="1" stop-color="#4C246D"/>
</linearGradient>
<linearGradient id="paint4_linear_2018_1569" x1="10.2757" y1="248.605" x2="0.610306" y2="248.605" gradientUnits="userSpaceOnUse">
<stop stop-color="#2B3582"/>
<stop offset="1" stop-color="#150E42"/>
</linearGradient>
<linearGradient id="paint5_linear_2018_1569" x1="55.1804" y1="246.84" x2="39.541" y2="246.84" gradientUnits="userSpaceOnUse">
<stop stop-color="#2B3582"/>
<stop offset="1" stop-color="#150E42"/>
</linearGradient>
</defs>
</svg>
